<svg width="32" height="48" viewBox="0 0 32 48" fill="none" xmlns="http://www.w3.org/2000/svg">
<g clip-path="url(#clip0_2_1326)">
<path d="M7.81411 47.92C12.1257 47.92 15.625 44.342 15.625 39.9333V31.9467H7.81411C3.50247 31.9467 0.00317383 35.5247 0.00317383 39.9333C0.00317383 44.342 3.50247 47.92 7.81411 47.92Z" fill="#0ACF83"/>
<path d="M0.00317383 23.9601C0.00317383 19.5514 3.50247 15.9734 7.81411 15.9734H15.625V31.9467H7.81411C3.50247 31.9467 0.00317383 28.3687 0.00317383 23.9601Z" fill="#A259FF"/>
<path d="M0.00317383 7.98667C0.00317383 3.57803 3.50247 0 7.81411 0H15.625V15.9733H7.81411C3.50247 15.9733 0.00317383 12.3953 0.00317383 7.98667Z" fill="#F24E1E"/>
<path d="M15.625 0H23.4359C27.7476 0 31.2469 3.57803 31.2469 7.98667C31.2469 12.3953 27.7476 15.9733 23.4359 15.9733H15.625V0Z" fill="#FF7262"/>
<path d="M31.2469 23.9601C31.2469 28.3687 27.7476 31.9467 23.4359 31.9467C19.1243 31.9467 15.625 28.3687 15.625 23.9601C15.625 19.5514 19.1243 15.9734 23.4359 15.9734C27.7476 15.9734 31.2469 19.5514 31.2469 23.9601Z" fill="#1ABCFE"/>
</g>
<defs>
<clipPath id="clip0_2_1326">
<rect width="31.25" height="47.92" fill="white"/>
</clipPath>
</defs>
</svg>
