<svg width="32" height="48" viewBox="0 0 32 48" fill="none" xmlns="http://www.w3.org/2000/svg">
<path d="M14.5853 0V14.5853H7.29265C3.27648 14.5853 0 11.3088 0 7.29265C0 3.27648 3.27648 0 7.29265 0H14.5853Z" fill="url(#paint0_radial_2_737)"/>
<path d="M14.5853 16.668V31.2533H7.29265C3.27648 31.2533 0 27.9768 0 23.9606C0 19.9445 3.27648 16.668 7.29265 16.668H14.5853Z" fill="url(#paint1_radial_2_737)"/>
<path d="M14.5853 33.337V40.6296C14.5853 44.6458 11.3088 47.9223 7.29265 47.9223C3.27648 47.9223 0 44.6458 0 40.6296C0 36.6135 3.27648 33.337 7.29265 33.337H14.5853Z" fill="url(#paint2_radial_2_737)"/>
<path d="M31.2542 7.29265C31.2542 11.3088 27.9778 14.5853 23.9616 14.5853H16.6689V0H23.9616C27.9778 0 31.2542 3.27648 31.2542 7.29265Z" fill="url(#paint3_radial_2_737)"/>
<path d="M23.9616 31.2533C27.9892 31.2533 31.2542 27.9882 31.2542 23.9606C31.2542 19.933 27.9892 16.668 23.9616 16.668C19.934 16.668 16.6689 19.933 16.6689 23.9606C16.6689 27.9882 19.934 31.2533 23.9616 31.2533Z" fill="url(#paint4_radial_2_737)"/>
<defs>
<radialGradient id="paint0_radial_2_737" cx="0" cy="0" r="1" gradientUnits="userSpaceOnUse" gradientTransform="translate(3.00966 9.17032) rotate(-38.3675) scale(19.6853)">
<stop stop-color="#6E757C"/>
<stop offset="1" stop-color="#CFD4DA"/>
</radialGradient>
<radialGradient id="paint1_radial_2_737" cx="0" cy="0" r="1" gradientUnits="userSpaceOnUse" gradientTransform="translate(3.00966 25.8383) rotate(-38.3675) scale(19.6853)">
<stop stop-color="#6E757C"/>
<stop offset="1" stop-color="#CFD4DA"/>
</radialGradient>
<radialGradient id="paint2_radial_2_737" cx="0" cy="0" r="1" gradientUnits="userSpaceOnUse" gradientTransform="translate(3.00966 42.5073) rotate(-38.3675) scale(19.6853)">
<stop stop-color="#6E757C"/>
<stop offset="1" stop-color="#CFD4DA"/>
</radialGradient>
<radialGradient id="paint3_radial_2_737" cx="0" cy="0" r="1" gradientUnits="userSpaceOnUse" gradientTransform="translate(19.6786 9.17032) rotate(-38.3675) scale(19.6853)">
<stop stop-color="#6E757C"/>
<stop offset="1" stop-color="#CFD4DA"/>
</radialGradient>
<radialGradient id="paint4_radial_2_737" cx="0" cy="0" r="1" gradientUnits="userSpaceOnUse" gradientTransform="translate(19.6786 25.8383) rotate(-38.3675) scale(19.6853)">
<stop stop-color="#6E757C"/>
<stop offset="1" stop-color="#CFD4DA"/>
</radialGradient>
</defs>
</svg>
