<svg width="32" height="32" viewBox="0 0 32 32" fill="none" xmlns="http://www.w3.org/2000/svg">
<path d="M29.8899 13.0974C30.6256 10.9184 30.3723 8.53133 29.1956 6.54929C27.4262 3.50922 23.8689 1.94519 20.3948 2.68121C18.8493 0.963169 16.6288 -0.0138519 14.3009 0.000148426C10.7497 -0.00785174 7.59891 2.2482 6.50641 5.58227C4.22512 6.04328 2.25597 7.45231 1.10367 9.44935C-0.678995 12.4814 -0.272599 16.3035 2.10902 18.9036C1.37325 21.0826 1.62662 23.4696 2.80324 25.4517C4.57273 28.4918 8.12996 30.0558 11.6041 29.3198C13.1486 31.0378 15.3701 32.0148 17.698 31.9998C21.2512 32.0088 24.403 29.7508 25.4955 26.4137C27.7768 25.9527 29.746 24.5437 30.8983 22.5466C32.6789 19.5146 32.2715 15.6955 29.8909 13.0954L29.8899 13.0974ZM17.7 29.9088C16.2781 29.9108 14.9009 29.4198 13.8094 28.5208C13.859 28.4948 13.9452 28.4478 14.0009 28.4138L20.4586 24.7337C20.789 24.5487 20.9917 24.2017 20.9897 23.8267V14.8435L23.7189 16.3985C23.7483 16.4125 23.7676 16.4405 23.7716 16.4725V23.9117C23.7676 27.2197 21.0525 29.9018 17.7 29.9088ZM4.64266 24.4057C3.9302 23.1916 3.6738 21.7686 3.91804 20.3876C3.96567 20.4156 4.04979 20.4666 4.10958 20.5006L10.5673 24.1807C10.8947 24.3697 11.3001 24.3697 11.6284 24.1807L19.5121 19.6886V22.7986C19.5141 22.8306 19.4989 22.8616 19.4736 22.8816L12.9459 26.6007C10.0383 28.2528 6.325 27.2707 4.64367 24.4057H4.64266ZM2.9431 10.4964C3.65251 9.28035 4.77238 8.35033 6.10609 7.86732C6.10609 7.92232 6.10305 8.01932 6.10305 8.08732V15.4485C6.10102 15.8225 6.30371 16.1695 6.63309 16.3545L14.5168 20.8456L11.7875 22.4006C11.7602 22.4186 11.7257 22.4216 11.6953 22.4086L5.16662 18.6865C2.26509 17.0285 1.26988 13.3654 2.94208 10.4974L2.9431 10.4964ZM25.3668 15.6455L17.4831 11.1534L20.2124 9.59935C20.2397 9.58135 20.2742 9.57835 20.3046 9.59135L26.8333 13.3104C29.7399 14.9675 30.7361 18.6365 29.0568 21.5046C28.3464 22.7186 27.2275 23.6487 25.8948 24.1327V16.5515C25.8979 16.1775 25.6962 15.8315 25.3678 15.6455H25.3668ZM28.0829 11.6114C28.0352 11.5824 27.9511 11.5324 27.8913 11.4984L21.4336 7.81832C21.1062 7.62931 20.7009 7.62931 20.3725 7.81832L12.4888 12.3104V9.20035C12.4868 9.16834 12.502 9.13734 12.5273 9.11734L19.055 5.40126C21.9626 3.74623 25.68 4.73125 27.3562 7.60131C28.0646 8.81334 28.321 10.2324 28.0808 11.6114H28.0829ZM11.0051 17.1545L8.27489 15.5995C8.2455 15.5855 8.22624 15.5575 8.22219 15.5255V8.08632C8.22421 4.77425 10.9474 2.09019 14.3039 2.09219C15.7238 2.09219 17.098 2.5842 18.1895 3.48022C18.1399 3.50622 18.0547 3.55322 17.998 3.58723L11.5402 7.2673C11.2099 7.45231 11.0072 7.79832 11.0092 8.17332L11.0051 17.1525V17.1545ZM12.4878 14.0004L15.9994 11.9994L19.5111 13.9994V18.0005L15.9994 20.0006L12.4878 18.0005V14.0004Z" fill="#222529"/>
</svg>
